<svg width="959" height="1171" viewBox="0 0 959 1171" fill="none" xmlns="http://www.w3.org/2000/svg">
<g clip-path="url(#clip0_26_11436)">
<g clip-path="url(#clip1_26_11436)">
<mask id="mask0_26_11436" style="mask-type:luminance" maskUnits="userSpaceOnUse" x="117" y="919" width="969" height="1260">
<path d="M627.211 919.368L1085.44 1942.66L576.086 2178.31L117.854 1155.02L627.211 919.368Z" fill="white"/>
</mask>
<g mask="url(#mask0_26_11436)">
<path fill-rule="evenodd" clip-rule="evenodd" d="M453.321 860.37L453.096 859.272L453.09 859.242C452.891 858.292 452.693 857.339 452.5 856.386C452.299 855.428 452.1 854.461 451.908 853.505L453.321 860.37ZM463.686 905.641C463.345 904.25 463.001 902.852 462.665 901.457L463.686 905.641ZM530.79 845.605L525.718 839.319L533.51 835.336L551.215 845.239L554.944 849.787L537.166 858.74L537.152 857.568C536.852 853.178 533.996 849.571 530.79 845.605ZM556.419 1208.76L487.855 931.631C494.302 942.766 505.706 954.589 513.68 956.701C512.954 947.974 514.127 942.699 510.713 931.457C509.761 928.568 508.631 925.636 507.367 922.687C510.839 920.234 513.769 917.369 515.654 914.13C522.272 908.823 486.442 867.36 487.014 862.822L488.724 841.753C502.207 858.323 515.816 874.803 529.563 891.189C534.274 896.81 537.675 894.502 537.632 888.279L537.21 861.492L556.546 851.751C565.684 862.895 574.486 873.609 582.005 882.733C586.858 888.637 590.25 886.308 590.097 879.877C589.758 869.287 591.62 852.581 591.28 841.991C590.906 837.455 587.949 833.674 584.647 829.513C548.764 784.281 512.002 740.434 475.498 696.176C475.902 695.563 476.319 694.944 476.741 694.299C481.537 687.066 493.181 671.33 494.975 662.462L494.973 662.438C494.984 662.378 494.99 662.337 495.005 662.282L495.002 662.276C495.011 662.224 495.013 662.176 495.008 662.131L495.011 662.121C495.02 662.07 495.015 662.04 495.013 662.001L495.011 661.996C495.002 661.959 494.994 661.923 494.995 661.891C494.98 661.859 494.968 661.832 494.957 661.807C494.935 661.793 494.917 661.77 494.898 661.763C494.88 661.739 494.847 661.738 494.828 661.731C494.793 661.724 494.768 661.719 494.746 661.722L494.732 661.728C494.709 661.731 494.673 661.739 494.628 661.745L494.623 661.748C494.593 661.753 494.554 661.771 494.515 661.789L494.508 661.792C489.275 664.193 475.335 685.821 471.852 691.075L471.609 691.448C453.443 669.386 435.343 647.207 417.484 624.687C416.424 623.367 414.312 623.888 414.463 625.399C414.635 635.021 413.298 647.465 412.775 658.388L388.386 669.168L370.545 647.058C369.52 645.801 367.415 646.335 367.536 647.797C367.557 659.875 367.583 671.96 367.614 684.042C367.813 686.818 369.636 689.573 371.311 691.592C378.8 701.512 386.33 711.452 393.921 721.373C391.887 722.048 389.868 723.09 387.976 724.489C380.668 729.932 378.036 738.816 382.085 744.339C385.977 749.634 394.603 749.913 401.754 745.12C408.081 752.983 413.992 761.118 419.859 770.26C414.217 774.753 411.779 781.486 414.389 786.636C417.493 792.745 426.547 794.311 434.63 790.132C436.743 789.032 438.996 787.402 440.567 785.589C443.819 810.835 448.127 835.549 453.321 860.37C446.966 864.401 446.812 871.876 448.153 873.802C451.733 881.477 456.551 889.869 461.122 897.269L452.233 918.026C451.334 921.331 452.629 925.72 454.327 929.055C454.547 929.562 455.913 928.664 455.679 928.038C454.157 925.041 453.307 921.678 454.212 918.245L462.662 901.467L462.665 901.457C465.698 913.903 466.26 926.848 474.842 930.821L393.517 1299.03C387.353 1301.5 381.205 1303.71 375.089 1305.58C345.125 1610.01 605.727 1872.68 575.757 2177.13C648.164 2154.99 723.124 2085.13 795.539 2063.01C825.504 1758.58 566.199 1497.11 596.168 1192.67C583.029 1196.68 569.763 1202.22 556.419 1208.76ZM399.409 1296.59L479.934 932.023C480.754 932.073 481.624 932.059 482.554 932.002L551.618 1211.14C501.129 1236.63 449.571 1275.11 399.409 1296.59ZM501.8 760.499C501.07 759.334 499.814 758.719 498.472 758.721L498.458 758.728L498.378 758.724L498.303 758.735L498.233 758.736L498.188 758.741L498.137 758.749L498.12 758.748L498.053 758.756L497.978 758.767L497.933 758.772L497.92 758.777C497.616 758.823 497.311 758.9 497.018 759.019C496.987 756.829 496.787 754.678 496.31 752.582L498.916 752.212C500.166 754.97 501.083 757.747 501.8 760.499ZM502.261 763.439C502.296 763.288 502.321 763.151 502.343 763.006L502.349 763.003C502.345 762.942 502.357 762.881 502.369 762.82L502.366 762.814C504.302 771.507 504.53 779.95 506.826 787.284L494.029 780.124C494.055 779.654 494.074 779.186 494.099 778.717C495.003 776.547 495.095 774.782 495.996 772.606C496.168 770.867 496.374 769.128 496.542 767.392C498.704 767.685 501.642 765.399 502.194 763.675L502.224 763.55L502.249 763.5L502.261 763.439ZM497.363 749.094L495.285 749.672C494.706 748.825 493.984 748.501 493.391 747.692C493.248 745.972 493.104 744.245 492.946 742.508L492.974 742.551C494.715 744.719 496.153 746.894 497.363 749.094ZM422.769 683.92L425.525 700.247L432.722 697.067C429.519 692.846 425.984 688.185 422.769 683.92ZM425.946 702.763L428.21 716.101L434.826 713.141L433.489 699.441L425.946 702.763ZM428.624 718.62L428.721 719.136L436.343 728.577L435.077 715.736L428.624 718.62ZM427.271 716.509L425.018 703.175L418.251 706.172L426.78 716.736L427.271 716.509ZM424.593 700.653L421.481 682.215C419.97 680.208 418.559 678.321 417.312 676.653L400.512 684.182L416.643 704.178L424.593 700.653ZM434.465 699.363L435.772 712.714L442.901 709.542C441.409 708.158 439.989 706.616 438.638 704.843C437.416 703.234 435.999 701.366 434.465 699.363ZM436.032 715.312L437.353 728.855L437.358 728.884C438.596 723.154 440.688 717.023 443.633 711.923L436.032 715.312ZM534.56 834.79L540.286 831.869C543.344 835.613 546.436 839.395 549.511 843.154L534.56 834.79ZM531.973 833.343L511.785 822.064L506.025 814.934L520.646 807.729C526.312 814.719 532.435 822.234 538.683 829.906L531.973 833.343ZM513.444 824.121L530.913 833.885L524.132 837.356L513.444 824.121ZM493.953 781.218L507.293 788.673C507.613 789.577 507.977 790.475 508.382 791.339L492.964 798.739L492.269 797.881L492.551 794.418C493.215 789.956 493.672 785.582 493.953 781.218ZM422.973 768.209C417.309 759.376 411.219 750.914 404.732 742.729C405.867 741.653 406.833 740.481 407.643 739.264C414.543 748.223 421.484 757.17 428.47 766.113C426.771 766.5 425.057 767.116 423.394 767.984C423.252 768.057 423.112 768.13 422.973 768.209ZM415.768 674.629L398.901 682.198L389.999 671.158L412.658 661.145C412.577 663.409 412.551 665.579 412.589 667.632C412.812 670.128 414.254 672.632 415.768 674.629ZM519.05 805.761L504.442 812.961L494.558 800.722L509.532 793.527C510.136 794.57 510.824 795.588 511.606 796.555C513.966 799.482 516.455 802.555 519.05 805.761Z" fill="black"/>
</g>
</g>
<mask id="mask1_26_11436" style="mask-type:luminance" maskUnits="userSpaceOnUse" x="210" y="18" width="514" height="1027">
<path d="M210.766 18H723.965V1044.02H210.766V18Z" fill="white"/>
</mask>
<g mask="url(#mask1_26_11436)">
<path d="M436.318 20.7151C430.948 27.3793 423.544 53.1091 418.547 81.9874C406.513 151.224 403.738 306.163 412.804 414.638C419.474 496.09 436.132 649.921 448.726 749.697C451.687 772.652 453.722 791.898 453.349 792.458C452.609 793.939 420.768 788.936 419.101 787.088C414.285 781.538 368.002 646.399 348.937 582.165C311.907 457.399 300.427 382.431 303.208 284.135C306.357 176.581 325.609 94.9486 361.338 39.0402C364.854 33.6763 367.262 28.6736 366.708 28.3064C363.56 25.1579 293.209 46.6315 281.548 54.4094C271.922 60.7004 250.629 96.0563 238.968 125.488C218.416 176.767 211.198 217.306 211.378 281.354C211.378 339.67 217.121 381.871 234.152 450.921C244.332 492.014 255.626 526.262 269.881 559.03C283.77 591.237 286.545 596.42 336.53 682.128C368.376 736.736 385.78 764.874 392.257 771.911C399.108 779.316 402.624 785.24 405.219 793.198C409.475 807.448 423.176 840.769 430.021 854.657C435.211 864.837 445.204 904.082 445.204 914.075C445.204 916.483 442.982 930.179 440.394 944.435C435.764 968.497 435.024 970.351 430.581 972.199L425.765 974.053L430.021 977.382C433.91 980.531 434.097 982.198 434.097 1003.12C434.097 1041.8 436.505 1044.02 479.085 1044.02C523.886 1044.02 524.813 1043.28 524.813 1004.23C524.813 980.531 525 978.863 528.516 977.942C533.145 976.642 533.332 972.386 528.702 970.905C525.921 969.978 524.259 965.168 520.37 944.808C517.776 931.106 515.554 916.297 515.554 912.041C515.554 901.301 524.073 870.388 539.436 824.852C546.66 803.565 552.397 785.794 552.03 785.607C551.657 785.24 548.328 785.98 544.619 787.088C532.405 790.79 528.142 799.489 593.31 687.685C605.163 667.319 621.08 639.735 628.858 626.593C663.106 567.729 683.845 515.709 700.503 447.959C735.678 303.755 730.682 191.203 685.507 101.059C671.811 73.8422 671.251 73.2884 648.851 61.9947C627.564 51.2609 574.244 32.376 573.317 35.1572C572.95 35.8977 575.352 40.8944 578.687 46.2643C586.832 59.4061 599.239 88.0977 606.084 110.125C625.156 169.736 633.674 251.741 630.152 343.373C627.004 422.416 616.084 477.024 579.427 597.901C568.32 634.738 537.588 723.221 522.405 762.653L510.558 793.198L495.375 793.752C481.12 794.306 480.379 794.119 480.379 790.417C480.379 788.196 482.787 766.168 485.936 741.733C488.898 717.117 493.894 673.983 496.856 646.032C500.005 618.081 503.34 587.535 504.447 578.463C509.817 532.186 519.63 423.711 523.146 370.21C526.294 325.782 526.294 180.656 523.146 145.3C518.703 92.1733 509.817 42.3753 502.226 26.4522C500.191 22.0094 498.337 21.0883 489.638 19.9746C470.94 17.7532 438.353 18.3071 436.318 20.7151ZM445.39 866.318C448.352 867.986 448.906 870.207 448.726 879.827C448.539 886.124 447.979 893.715 447.239 896.858C446.318 901.487 445.39 899.266 442.242 884.27C437.986 863.723 438.172 862.616 445.39 866.318ZM517.409 886.124C515.374 895.937 513.146 904.449 512.592 905.003C512.225 905.376 511.852 897.231 511.852 886.865C511.852 869.093 512.039 867.986 516.114 866.505C518.336 865.578 520.37 865.578 520.738 866.505C521.111 867.245 519.63 876.125 517.409 886.124ZM458.532 873.723C458.165 876.311 456.497 884.643 454.463 892.235L451.128 906.117L450.947 887.051C450.76 868.166 450.76 867.986 455.017 868.54C458.165 868.907 458.906 870.207 458.532 873.723ZM510.004 887.051C510.004 897.418 509.631 905.376 509.263 905.003C507.596 903.342 500.932 871.128 501.859 869.647C502.413 868.907 504.447 868.166 506.482 868.166C509.817 868.166 510.004 869.647 510.004 887.051ZM500.745 880.568C501.859 886.491 503.707 894.269 504.634 897.785C507.409 908.152 506.855 912.594 502.78 912.594C500.191 912.594 498.897 911.113 498.524 907.784C498.156 905.003 496.302 901.674 494.267 900.38C490.932 898.158 489.825 898.339 486.303 900.747C484.081 902.228 482.233 905.563 482.233 908.152C482.233 910.927 481.12 912.594 479.452 912.594C477.79 912.594 476.677 910.927 476.677 908.152C476.677 903.709 472.421 897.785 469.085 897.785C466.124 897.785 460.013 905.19 460.013 908.892C460.013 911.3 458.719 912.594 456.497 912.594C453.168 912.594 453.168 911.854 457.425 892.602C459.833 881.681 461.681 872.242 461.867 871.315C461.867 870.574 470.199 870.02 480.192 870.02H498.71L500.745 880.568ZM462.794 923.701C464.643 925.736 467.237 927.404 468.718 927.404C470.013 927.404 472.788 925.736 474.829 923.701C476.863 921.667 479.085 919.999 480.012 919.999C480.752 919.999 482.787 921.667 484.641 923.701C488.711 928.517 492.413 928.331 497.229 923.515C499.264 921.48 502.78 919.999 504.821 920.372C508.336 920.926 509.263 923.701 512.966 942.213C515.374 953.874 517.222 964.794 517.409 966.462C517.409 969.057 512.592 969.61 481.12 970.718C461.314 971.278 444.277 971.459 443.536 970.905C442.242 970.164 448.906 930.552 451.687 922.22C452.982 918.705 459.092 919.632 462.794 923.701Z" fill="black"/>
</g>
<path d="M147.692 176.214C136.218 197.314 132.515 206.754 123.256 238.781C110.482 282.468 109.188 290.981 109.188 332.266C109.188 375.394 112.149 393.352 125.851 434.445C144.549 490.907 177.13 542.553 226.194 594.199C239.149 608.082 259.328 629.188 270.995 641.403C282.656 653.624 290.62 661.028 288.766 658.066C286.918 654.918 271.362 632.704 254.145 608.642C219.156 559.397 212.679 549.404 198.977 522.193C158.432 441.109 136.958 349.297 140.287 269.326C141.588 240.448 144.549 219.715 152.875 184.359C156.024 171.398 158.064 160.291 157.691 159.924C157.324 159.55 152.875 166.955 147.692 176.214Z" fill="black"/>
<path d="M778.441 169.176C778.441 169.55 780.109 176.4 782.144 184.359C792.883 227.673 796.772 273.582 793.437 313.754C784.925 412.231 752.525 502.941 697.357 582.906C676.618 612.711 640.702 664.357 632.557 675.651C620.156 692.868 639.221 670.094 681.801 616.781C760.483 518.491 791.776 468.139 812.509 407.234C836.391 336.709 832.875 267.659 802.323 206.386C792.883 187.507 778.441 164.92 778.441 169.176Z" fill="black"/>
</g>
<defs>
<clipPath id="clip0_26_11436">
<rect width="959" height="1171" fill="white"/>
</clipPath>
<clipPath id="clip1_26_11436">
<rect width="190.374" height="1035.64" fill="white" transform="translate(1133 1005.57) rotate(91.4046)"/>
</clipPath>
</defs>
</svg>
