<svg width="305" height="90" viewBox="0 0 305 90" fill="none" xmlns="http://www.w3.org/2000/svg">
<g clip-path="url(#clip0_23_9948)">
<path d="M53.874 23.8553C51.5311 23.8553 49.5897 23.1621 48.05 21.7756C46.5772 20.3231 45.8407 18.5405 45.8407 16.4277C45.8407 14.3149 46.5772 12.5653 48.05 11.1788C49.5897 9.72626 51.5311 9 53.874 9C56.2171 9 58.125 9.72626 59.5978 11.1788C61.1375 12.5653 61.9074 14.3149 61.9074 16.4277C61.9074 18.5405 61.1375 20.3231 59.5978 21.7756C58.125 23.1621 56.2171 23.8553 53.874 23.8553ZM36 80.3057L44.7362 31.184H57.5895L48.8533 80.3057H36Z" fill="black"/>
<path d="M90.4085 80.3052C85.1869 80.3052 81.0029 79.0507 77.8565 76.5419C74.7102 74.0329 73.137 69.5763 73.137 63.172V41.7803H64.6016V31.1835H73.137L74.6432 18.0117H85.9902V31.1835H99.446V41.7803H85.9902V63.271C85.9902 65.6479 86.4923 67.2985 87.4964 68.2228C88.5676 69.0812 90.3751 69.5103 92.919 69.5103H99.1447V80.3052H90.4085Z" fill="black"/>
<path d="M127.654 81.4946C123.369 81.4946 119.855 80.8344 117.11 79.5139C114.366 78.1274 112.324 76.3118 110.985 74.067C109.646 71.8221 108.977 69.3462 108.977 66.6393C108.977 62.0836 110.784 58.3863 114.399 55.5473C118.014 52.7083 123.436 51.2887 130.666 51.2887H143.319V50.1003C143.319 46.7331 142.348 44.2572 140.407 42.6727C138.466 41.0881 136.055 40.2958 133.177 40.2958C130.566 40.2958 128.29 40.923 126.348 42.1774C124.407 43.3659 123.202 45.1486 122.734 47.5254H110.182C110.516 43.9601 111.721 40.857 113.797 38.216C115.939 35.5751 118.684 33.5614 122.031 32.1749C125.378 30.7223 129.127 29.9961 133.277 29.9961C140.373 29.9961 145.963 31.7457 150.047 35.245C154.131 38.7442 156.172 43.696 156.172 50.1003V80.3062H145.227L144.022 72.3833C142.549 75.0243 140.474 77.2031 137.796 78.9197C135.186 80.6363 131.805 81.4946 127.654 81.4946ZM130.566 71.591C134.248 71.591 137.093 70.4026 139.101 68.0258C141.177 65.6489 142.482 62.7108 143.017 59.2116H132.073C128.658 59.2116 126.215 59.8389 124.742 61.0932C123.269 62.2817 122.533 63.7672 122.533 65.5499C122.533 67.4646 123.269 68.9501 124.742 70.0065C126.215 71.0629 128.156 71.591 130.566 71.591Z" fill="black"/>
<path d="M168.438 80.3057V9H181.291V80.3057H168.438Z" fill="black"/>
<path d="M201.354 23.5583C199.011 23.5583 197.069 22.865 195.53 21.4785C194.056 20.092 193.32 18.3424 193.32 16.2296C193.32 14.1168 194.056 12.4002 195.53 11.0797C197.069 9.69325 199.011 9 201.354 9C203.696 9 205.605 9.69325 207.077 11.0797C208.617 12.4002 209.386 14.1168 209.386 16.2296C209.386 18.3424 208.617 20.092 207.077 21.4785C205.605 22.865 203.696 23.5583 201.354 23.5583ZM194.927 80.3057V31.184H207.78V80.3057H194.927Z" fill="black"/>
<path d="M245.602 81.4946C240.514 81.4946 236.029 80.4052 232.146 78.2264C228.263 76.0477 225.184 73.0106 222.908 69.1151C220.698 65.2198 219.594 60.7632 219.594 55.7454C219.594 50.7276 220.698 46.2709 222.908 42.3755C225.184 38.4802 228.263 35.4431 232.146 33.2643C236.029 31.0854 240.514 29.9961 245.602 29.9961C251.962 29.9961 257.317 31.6467 261.669 34.9478C266.02 38.183 268.798 42.6727 270.003 48.4167H256.447C255.777 46.0398 254.439 44.1912 252.43 42.8707C250.489 41.4842 248.179 40.791 245.502 40.791C241.954 40.791 238.941 42.1115 236.464 44.7524C233.987 47.3933 232.749 51.0576 232.749 55.7454C232.749 60.4331 233.987 64.0973 236.464 66.7383C238.941 69.3792 241.954 70.6998 245.502 70.6998C248.179 70.6998 250.489 70.0395 252.43 68.719C254.439 67.3985 255.777 65.5168 256.447 63.074H270.003C268.798 68.62 266.02 73.0766 261.669 76.4438C257.317 79.811 251.962 81.4946 245.602 81.4946Z" fill="black"/>
</g>
<defs>
<clipPath id="clip0_23_9948">
<rect width="234" height="72.4941" fill="white" transform="translate(36 9)"/>
</clipPath>
</defs>
</svg>
