<svg width="305" height="90" viewBox="0 0 305 90" fill="none" xmlns="http://www.w3.org/2000/svg">
<path d="M74.537 75.4229H63.884V48.7457H34.565V75.4229H24V13H34.565V38.7968H63.884V13H74.537V75.4229Z" fill="black"/>
<path d="M79.4766 63.8012C79.4766 56.1414 85.1116 51.9154 92.4196 50.8588L103.425 49.186C105.89 48.8338 106.595 47.6012 106.595 46.1045C106.595 42.4947 104.13 39.5893 98.4946 39.5893C93.1236 39.5893 90.1306 43.023 89.6896 47.3371L80.3576 45.2241C81.1496 37.8284 87.8416 31.2251 98.4066 31.2251C111.613 31.2251 116.632 38.7088 116.632 47.2491V68.5556C116.632 72.4295 117.072 74.9827 117.16 75.423H107.651C107.563 75.1588 107.211 73.398 107.211 69.9643C105.186 73.2219 100.96 76.7436 94.0046 76.7436C85.0236 76.7436 79.4766 70.5806 79.4766 63.8012ZM95.9416 68.7317C101.664 68.7317 106.595 66.0023 106.595 57.6382V55.7012L95.4126 57.374C92.2436 57.9023 89.6896 59.6632 89.6896 63.1849C89.6896 66.0904 91.8916 68.7317 95.9416 68.7317Z" fill="black"/>
<path d="M161.024 32.5459L144.208 75.4231H133.995L116.562 32.5459H127.832L139.189 63.185L150.283 32.5459H161.024Z" fill="black"/>
<path d="M159.383 63.8012C159.383 56.1414 165.018 51.9154 172.326 50.8588L183.331 49.186C185.796 48.8338 186.501 47.6012 186.501 46.1045C186.501 42.4947 184.035 39.5893 178.4 39.5893C173.03 39.5893 170.036 43.023 169.596 47.3371L160.264 45.2241C161.056 37.8284 167.747 31.2251 178.312 31.2251C191.519 31.2251 196.537 38.7088 196.537 47.2491V68.5556C196.537 72.4295 196.978 74.9827 197.066 75.423H187.557C187.469 75.1588 187.117 73.398 187.117 69.9643C185.092 73.2219 180.866 76.7436 173.91 76.7436C164.93 76.7436 159.383 70.5806 159.383 63.8012ZM175.847 68.7317C181.57 68.7317 186.501 66.0023 186.501 57.6382V55.7012L175.319 57.374C172.149 57.9023 169.596 59.6632 169.596 63.1849C169.596 66.0904 171.797 68.7317 175.847 68.7317Z" fill="black"/>
<path d="M212.838 50.6825V75.4228H202.625V32.5456H212.574V38.2684C215.391 33.338 220.497 31.313 225.252 31.313C235.729 31.313 240.747 38.8847 240.747 48.3054V75.4228H230.534V50.0662C230.534 44.7836 228.157 40.5575 221.73 40.5575C215.919 40.5575 212.838 45.0478 212.838 50.6825Z" fill="black"/>
<path d="M244.273 63.8012C244.273 56.1414 249.907 51.9154 257.215 50.8588L268.22 49.186C270.686 48.8338 271.39 47.6012 271.39 46.1045C271.39 42.4947 268.925 39.5893 263.29 39.5893C257.919 39.5893 254.926 43.023 254.486 47.3371L245.153 45.2241C245.945 37.8284 252.637 31.2251 263.202 31.2251C276.409 31.2251 281.427 38.7088 281.427 47.2491V68.5556C281.427 72.4295 281.867 74.9827 281.955 75.423H272.447C272.359 75.1588 272.006 73.398 272.006 69.9643C269.981 73.2219 265.755 76.7436 258.8 76.7436C249.819 76.7436 244.273 70.5806 244.273 63.8012ZM260.737 68.7317C266.46 68.7317 271.39 66.0023 271.39 57.6382V55.7012L260.209 57.374C257.039 57.9023 254.486 59.6632 254.486 63.1849C254.486 66.0904 256.687 68.7317 260.737 68.7317Z" fill="black"/>
</svg>
