<svg width="702" height="753" viewBox="0 0 702 753" fill="none" xmlns="http://www.w3.org/2000/svg">
<g clip-path="url(#clip0_26_11345)">
<path d="M78.1723 417.19L1.92524 492.885C-8.56761 503.302 -14.4688 517.474 -14.4688 532.26V595.201C-14.4688 625.845 10.3726 650.685 41.0158 650.685H658.583C689.227 650.685 714.067 625.845 714.067 595.201V285.489C714.067 255.976 685.517 234.877 657.304 243.54C650.086 245.757 643.566 249.795 638.367 255.269L557.234 340.696C539.839 359.013 512.268 363.266 490.161 351.047L475.163 342.756C452.921 330.46 425.169 334.848 407.807 353.406L347.158 418.222C333.73 432.573 312.33 436.098 295.01 426.813L294.381 426.475C275.897 416.567 252.95 421.614 240.327 438.361C223.139 461.162 188.809 460.885 171.993 437.806L161.839 423.869C141.885 396.484 102.219 393.317 78.1723 417.19Z" fill="#E5FF67" stroke="black" stroke-width="7.23711"/>
<path d="M446.291 362.408C460.28 362.408 471.621 351.067 471.621 337.078C471.621 323.089 460.28 311.748 446.291 311.748C432.302 311.748 420.961 323.089 420.961 337.078C420.961 351.067 432.302 362.408 446.291 362.408Z" fill="#E5FF67" stroke="black" stroke-width="7.23711"/>
<rect width="702" height="212.289" transform="translate(0 584.134)" fill="#E5FF67"/>
<path d="M331.706 241.577C381.668 241.577 422.17 201.075 422.17 151.113C422.17 101.151 381.668 60.6494 331.706 60.6494C281.744 60.6494 241.242 101.151 241.242 151.113C241.242 201.075 281.744 241.577 331.706 241.577Z" fill="#E5FF67"/>
<path d="M287.773 148.528L331.713 102.004L375.653 148.528" stroke="black" stroke-width="10.7523"/>
<path d="M331.703 102.004V205.391" stroke="black" stroke-width="10.7523"/>
</g>
<defs>
<clipPath id="clip0_26_11345">
<rect width="702" height="752.66" fill="white" transform="translate(0 0.339844)"/>
</clipPath>
</defs>
</svg>
