<svg width="137" height="37" viewBox="0 0 137 37" fill="none" xmlns="http://www.w3.org/2000/svg">
<g clip-path="url(#clip0_19_7899)">
<path d="M75.764 7.53624L78.4432 10.058C78.4432 10.058 81.7767 4.22415 91.9854 6.93316C102.194 9.64217 105.736 19.0176 105.736 19.0176C105.736 19.0176 128.863 17.1425 135.322 32.9771C135.322 32.9771 135.322 34.6436 129.071 34.6436C122.821 34.6436 78.8598 35.0602 76.1515 33.6017C73.4432 32.1432 73.2346 27.5598 73.2346 27.5598C73.2346 27.5598 42.3991 28.1851 30.9399 25.6847C29.2624 25.3187 27.7797 22.1758 25.5227 21.7259C12.3631 19.1056 -7.72023 17.8994 7.39627 13.8089C25.106 9.01687 42.3985 11.5172 42.3985 11.5172C42.3985 11.5172 50.3619 4.31771 58.9429 2.58889C64.9994 1.36886 71.2652 3.30221 75.764 7.53624Z" stroke="black" stroke-width="3" stroke-miterlimit="10"/>
<path d="M131.364 34.2262C131.364 34.2262 128.978 25.5987 114.071 23.8089C110.941 23.4331 104.904 21.5172 100.737 24.8507C100.737 24.8507 97.8201 9.43339 86.9861 9.64135C84.5107 9.68918 78.8605 11.7251 77.1941 14.6414C77.1941 14.6414 72.6106 4.0154 61.3594 2.97422C61.3594 2.97422 73.0266 1.51574 77.8186 9.01611C77.8186 9.01611 84.9024 1.93233 95.7363 8.18287C106.57 14.4334 106.153 18.8088 106.153 18.8088C106.153 18.8088 125.738 16.3085 135.322 31.3099C135.322 31.3099 137.614 33.3937 131.363 34.2269L131.364 34.2262Z" fill="black"/>
</g>
<defs>
<clipPath id="clip0_19_7899">
<rect width="137" height="37" fill="white"/>
</clipPath>
</defs>
</svg>
