<svg width="615" height="346" viewBox="0 0 615 346" fill="none" xmlns="http://www.w3.org/2000/svg">
<path d="M78.0357 177.259C39.2069 159.667 17.3521 94.4445 36.0011 69.4457C54.651 44.4475 114.712 49.3149 142.411 54.8739C128.228 42.8823 108.04 16.9134 140.749 8.9692C173.46 1.02505 239.275 43.8685 268.094 66.2837C270.921 59.9962 302.042 47.3625 348.623 51.2265C395.204 55.0911 420.13 74.2096 433.68 82.7732C447.807 65.0847 487.095 28.2977 538.888 41.0888C590.681 53.8799 554.329 92.6194 536.107 109.739C550.29 107.671 593.378 106.709 605.203 136.674C618.994 171.617 549.434 203.202 531.857 210.002C551.209 224.11 598.619 268.769 560.371 292.535C522.467 316.087 477.836 299.243 458.157 283.991C464.784 289.784 462.562 311.857 428.788 317.612C405.8 321.529 371.707 311.218 371.726 302.905C368.651 310.734 354.552 339.114 312.303 337.102C263.333 334.77 213.908 294.989 209.463 284.739C168.7 298.104 94.2654 313.321 34.7359 289.387C-24.7927 265.454 26.4585 201.394 78.0357 177.259Z" fill="white"/>
<path d="M78.0357 177.259C39.2069 159.667 17.3521 94.4446 36.0011 69.4458C54.651 44.4476 114.712 49.315 142.411 54.8739C128.228 42.8824 108.04 16.9134 140.749 8.96927C173.46 1.02512 239.275 43.8686 268.094 66.2838C270.921 59.9963 302.042 47.3625 348.623 51.2266C395.204 55.0911 420.13 74.2097 433.68 82.7733C447.807 65.0848 487.095 28.2978 538.888 41.0889C590.681 53.88 554.329 92.6195 536.107 109.739C550.29 107.671 593.377 106.709 605.203 136.674C618.994 171.617 549.434 203.202 531.857 210.002C551.209 224.11 598.619 268.769 560.371 292.535C522.123 316.301 477.024 298.933 457.627 283.576C464.878 288.635 463.433 311.708 428.788 317.612C403.94 321.846 366.114 309.456 372.426 300.934C372.426 300.934 361.273 339.434 312.303 337.102C263.333 334.77 213.908 294.989 209.463 284.739C168.7 298.104 94.2654 313.321 34.7359 289.387C-24.7927 265.454 26.4585 201.394 78.0357 177.259Z" fill="white" stroke="#141414" stroke-width="16"/>
</svg>
