<svg width="305" height="90" viewBox="0 0 305 90" fill="none" xmlns="http://www.w3.org/2000/svg">
<path d="M244.609 29.8057C248.277 29.8057 251.527 30.5136 254.359 31.9296C257.191 33.2812 259.38 35.1798 260.924 37.6255C262.533 40.0713 263.338 42.871 263.338 46.0247V78.7523C263.338 79.0741 263.209 79.3637 262.952 79.6212C262.759 79.8142 262.501 79.9108 262.179 79.9108H253.297C252.976 79.9108 252.686 79.8142 252.429 79.6212C252.235 79.3637 252.139 79.0741 252.139 78.7523V76.3387C252.139 76.1457 252.075 76.0169 251.946 75.9526C251.817 75.8882 251.688 75.9204 251.56 76.0491C248.857 79.1385 244.963 80.6831 239.878 80.6831C235.63 80.6831 232.026 79.5568 229.065 77.3042C226.105 74.9872 224.625 71.2542 224.625 66.1053C224.625 60.699 226.33 56.6764 229.741 54.0376C233.217 51.3988 237.979 50.0794 244.029 50.0794H251.656C251.978 50.0794 252.139 49.9185 252.139 49.5967V47.1832C252.139 44.8018 251.463 42.9353 250.112 41.5837C248.824 40.1678 247.022 39.4598 244.705 39.4598C242.839 39.4598 241.294 39.9104 240.071 40.8114C238.913 41.6481 238.173 42.8066 237.851 44.2869C237.658 44.9949 237.207 45.3489 236.499 45.3489L227.135 44.7696C226.813 44.7696 226.523 44.6731 226.266 44.48C226.073 44.2226 226.008 43.9651 226.073 43.7077C226.459 39.5886 228.357 36.2418 231.769 33.6673C235.244 31.0929 239.524 29.8057 244.609 29.8057ZM242.774 71.6082C245.284 71.6082 247.473 70.9002 249.339 69.4843C251.206 68.004 252.139 66.0732 252.139 63.6918V58.6716C252.139 58.3498 251.978 58.1889 251.656 58.1889H245.188C242.356 58.1889 240.103 58.8003 238.43 60.0232C236.821 61.2461 236.016 63.016 236.016 65.333C236.016 67.3926 236.628 68.9694 237.851 70.0635C239.138 71.0933 240.779 71.6082 242.774 71.6082Z" fill="black"/>
<path d="M205.147 29.8057C209.846 29.8057 213.514 31.286 216.153 34.2466C218.792 37.2072 220.111 41.2941 220.111 46.5074V78.7523C220.111 79.0741 219.983 79.3637 219.725 79.6212C219.532 79.8142 219.275 79.9108 218.953 79.9108H210.071C209.749 79.9108 209.46 79.8142 209.202 79.6212C209.009 79.3637 208.913 79.0741 208.913 78.7523V48.052C208.913 45.4132 208.237 43.3215 206.885 41.7768C205.598 40.2322 203.828 39.4598 201.575 39.4598C199.258 39.4598 197.392 40.2643 195.976 41.8734C194.624 43.418 193.949 45.5098 193.949 48.1486V78.7523C193.949 79.0741 193.82 79.3637 193.562 79.6212C193.369 79.8142 193.112 79.9108 192.79 79.9108H183.908C183.586 79.9108 183.297 79.8142 183.039 79.6212C182.846 79.3637 182.75 79.0741 182.75 78.7523V31.7365C182.75 31.4147 182.846 31.1573 183.039 30.9642C183.297 30.7067 183.586 30.578 183.908 30.578H192.79C193.112 30.578 193.369 30.7067 193.562 30.9642C193.82 31.1573 193.949 31.4147 193.949 31.7365V34.2466C193.949 34.4397 194.013 34.5684 194.142 34.6327C194.27 34.6971 194.399 34.6328 194.528 34.4397C197.102 31.3503 200.642 29.8057 205.147 29.8057Z" fill="black"/>
<path d="M157.742 29.8057C161.411 29.8057 164.661 30.5136 167.493 31.9296C170.325 33.2812 172.513 35.1798 174.058 37.6255C175.667 40.0713 176.471 42.871 176.471 46.0247V78.7523C176.471 79.0741 176.342 79.3637 176.085 79.6212C175.892 79.8142 175.634 79.9108 175.313 79.9108H166.431C166.109 79.9108 165.819 79.8142 165.562 79.6212C165.369 79.3637 165.272 79.0741 165.272 78.7523V76.3387C165.272 76.1457 165.208 76.0169 165.079 75.9526C164.951 75.8882 164.822 75.9204 164.693 76.0491C161.99 79.1385 158.096 80.6831 153.012 80.6831C148.764 80.6831 145.159 79.5568 142.199 77.3042C139.238 74.9872 137.758 71.2542 137.758 66.1053C137.758 60.699 139.463 56.6764 142.875 54.0376C146.35 51.3988 151.113 50.0794 157.163 50.0794H164.79C165.111 50.0794 165.272 49.9185 165.272 49.5967V47.1832C165.272 44.8018 164.597 42.9353 163.245 41.5837C161.958 40.1678 160.156 39.4598 157.839 39.4598C155.972 39.4598 154.427 39.9104 153.205 40.8114C152.046 41.6481 151.306 42.8066 150.984 44.2869C150.791 44.9949 150.341 45.3489 149.633 45.3489L140.268 44.7696C139.946 44.7696 139.656 44.6731 139.399 44.48C139.206 44.2226 139.142 43.9651 139.206 43.7077C139.592 39.5886 141.491 36.2418 144.902 33.6673C148.378 31.0929 152.658 29.8057 157.742 29.8057ZM155.908 71.6082C158.418 71.6082 160.606 70.9002 162.473 69.4843C164.339 68.004 165.272 66.0732 165.272 63.6918V58.6716C165.272 58.3498 165.111 58.1889 164.79 58.1889H158.321C155.489 58.1889 153.237 58.8003 151.563 60.0232C149.954 61.2461 149.15 63.016 149.15 65.333C149.15 67.3926 149.761 68.9694 150.984 70.0635C152.271 71.0933 153.913 71.6082 155.908 71.6082Z" fill="black"/>
<path d="M132.018 29.9971C133.82 29.9971 135.397 30.3832 136.749 31.1556C137.264 31.413 137.457 31.8957 137.328 32.6037L135.687 41.389C135.622 42.1613 135.172 42.3866 134.335 42.0648C133.499 41.743 132.533 41.5821 131.439 41.5821C130.988 41.5821 130.313 41.6464 129.412 41.7752C127.223 41.9682 125.389 42.9658 123.909 44.7679C122.493 46.5701 121.785 48.8227 121.785 51.5259V78.7506C121.785 79.0724 121.656 79.362 121.399 79.6195C121.206 79.8126 120.948 79.9091 120.626 79.9091H111.744C111.423 79.9091 111.133 79.8126 110.876 79.6195C110.683 79.362 110.586 79.0724 110.586 78.7506V31.7348C110.586 31.413 110.683 31.1556 110.876 30.9625C111.133 30.705 111.423 30.5763 111.744 30.5763H120.626C120.948 30.5763 121.206 30.705 121.399 30.9625C121.656 31.1556 121.785 31.413 121.785 31.7348V35.8861C121.785 36.1436 121.817 36.3045 121.881 36.3688C122.01 36.3688 122.139 36.2723 122.267 36.0792C124.584 32.0244 127.835 29.9971 132.018 29.9971Z" fill="black"/>
<path d="M92.9319 79.9108C92.6101 79.9108 92.3204 79.8142 92.063 79.6212C91.8699 79.3637 91.7734 79.0741 91.7734 78.7523V31.6399C91.7734 31.3181 91.8699 31.0607 92.063 30.8676C92.3204 30.6102 92.6101 30.4814 92.9319 30.4814H101.814C102.136 30.4814 102.393 30.6102 102.586 30.8676C102.844 31.0607 102.972 31.3181 102.972 31.6399V78.7523C102.972 79.0741 102.844 79.3637 102.586 79.6212C102.393 79.8142 102.136 79.9108 101.814 79.9108H92.9319Z" fill="black"/>
<path d="M85.6714 12.3311C85.9932 12.3311 86.2507 12.4598 86.4437 12.7172C86.7012 12.9103 86.8299 13.1678 86.8299 13.4896V20.9233C86.8299 21.2451 86.7012 21.5347 86.4437 21.7921C86.2507 21.9852 85.9932 22.0818 85.6714 22.0818H70.7075C70.3857 22.0818 70.2247 22.2427 70.2247 22.5645V78.7517C70.2247 79.0735 70.096 79.3632 69.8386 79.6206C69.6455 79.8137 69.3881 79.9102 69.0662 79.9102H60.1844C59.8626 79.9102 59.573 79.8137 59.3155 79.6206C59.1225 79.3632 59.0259 79.0735 59.0259 78.7517V22.5645C59.0259 22.2427 58.865 22.0818 58.5432 22.0818H44.1585C43.8367 22.0818 43.5471 21.9852 43.2896 21.7921C43.0965 21.5347 43 21.2451 43 20.9233V13.4896C43 13.1678 43.0965 12.9103 43.2896 12.7172C43.5471 12.4598 43.8367 12.3311 44.1585 12.3311H85.6714Z" fill="black"/>
<path d="M91.7603 21.6545C93.034 22.9282 94.658 23.565 96.6323 23.565C98.6065 23.565 100.231 22.9282 101.504 21.6545C102.778 20.3808 103.415 18.7568 103.415 16.7825C103.415 14.7446 102.778 13.1206 101.504 11.9106C100.294 10.6369 98.6702 10 96.6323 10C94.658 10 93.034 10.6369 91.7603 11.9106C90.5503 13.1843 89.9453 14.8083 89.9453 16.7825C89.9453 18.7568 90.5503 20.3808 91.7603 21.6545Z" fill="black"/>
</svg>
