<svg width="625" height="357" viewBox="0 0 625 357" fill="none" xmlns="http://www.w3.org/2000/svg">
<path d="M86.0357 182.259C47.2069 164.667 25.3521 99.4445 44.0011 74.4457C62.651 49.4475 122.712 54.3149 150.411 59.8739C136.228 47.8823 116.04 21.9134 148.749 13.9692C181.46 6.02505 247.275 48.8685 276.094 71.2837C278.921 64.9962 310.042 52.3625 356.623 56.2265C403.204 60.0911 428.13 79.2096 441.68 87.7732C455.807 70.0847 495.095 33.2977 546.888 46.0888C598.681 58.8799 562.329 97.6194 544.107 114.739C558.29 112.671 601.378 111.709 613.203 141.674C626.994 176.617 557.434 208.202 539.857 215.002C559.209 229.11 606.619 273.769 568.371 297.535C530.467 321.087 485.836 304.243 466.157 288.991C472.784 294.784 470.562 316.857 436.788 322.612C413.8 326.529 379.707 316.218 379.726 307.905C376.651 315.734 362.552 344.114 320.303 342.102C271.333 339.77 221.908 299.989 217.463 289.739C176.7 303.104 102.265 318.321 42.7359 294.387C-16.7927 270.454 34.4585 206.394 86.0357 182.259Z" fill="#E5FF66"/>
<path d="M86.0357 182.259C47.2069 164.667 25.3521 99.4446 44.0011 74.4458C62.651 49.4476 122.712 54.315 150.411 59.8739C136.228 47.8824 116.04 21.9134 148.749 13.9693C181.46 6.02512 247.275 48.8686 276.094 71.2838C278.921 64.9963 310.042 52.3625 356.623 56.2266C403.204 60.0911 428.13 79.2097 441.68 87.7733C455.807 70.0848 495.095 33.2978 546.888 46.0889C598.681 58.88 562.329 97.6195 544.107 114.739C558.29 112.671 601.377 111.709 613.203 141.674C626.994 176.617 557.434 208.202 539.857 215.002C559.209 229.11 606.619 273.769 568.371 297.535C530.123 321.301 485.024 303.933 465.627 288.576C472.878 293.635 471.433 316.708 436.788 322.612C411.94 326.846 374.114 314.456 380.426 305.934C380.426 305.934 369.273 344.434 320.303 342.102C271.333 339.77 221.908 299.989 217.463 289.739C176.7 303.104 102.265 318.321 42.7359 294.387C-16.7927 270.454 34.4585 206.394 86.0357 182.259Z" fill="#E5FF66" stroke="#141414" stroke-width="16"/>
</svg>
