<svg width="270" height="129" viewBox="0 0 270 129" fill="none" xmlns="http://www.w3.org/2000/svg">
<g clip-path="url(#clip0_19_3646)">
<mask id="mask0_19_3646" style="mask-type:luminance" maskUnits="userSpaceOnUse" x="-142" y="0" width="554" height="442">
<path d="M-141.969 0H411.975V441.382H-141.969V0Z" fill="white"/>
</mask>
<g mask="url(#mask0_19_3646)">
<path d="M381.72 136.595C381.304 133.387 378.405 131.167 375.144 131.543L284.286 143.261L129.77 42.2491C131.658 38.3891 132.807 34.1207 132.807 29.5493C132.807 13.4309 119.649 0.30957 103.493 0.30957C87.3381 0.30957 74.1867 13.4309 74.1867 29.5493C74.1867 36.0375 76.3918 41.979 79.9899 46.8468L-45.569 185.793L-136.427 197.511C-139.643 197.933 -141.9 200.858 -141.491 204.066L-111.432 436.04C-111.234 437.568 -110.428 438.971 -109.194 439.913C-108.164 440.704 -106.909 441.125 -105.622 441.125C-105.371 441.125 -105.114 441.112 -104.869 441.079L406.729 375.097C408.267 374.886 409.673 374.089 410.611 372.871C411.561 371.646 411.984 370.091 411.792 368.543L381.72 136.595ZM103.507 12.0015C113.205 12.0015 121.095 19.873 121.095 29.5493C121.095 39.219 113.205 47.0905 103.507 47.0905C93.8148 47.0905 85.9252 39.219 85.9252 29.5493C85.9252 19.873 93.8148 12.0015 103.507 12.0015ZM88.7377 54.659C93.0951 57.2148 98.1061 58.7825 103.507 58.7825C110.835 58.7825 117.47 55.9896 122.62 51.5367L266.434 145.566L-27.6905 183.494L88.7377 54.659ZM-100.551 428.755L-129.112 208.367L370.846 143.893L399.413 364.268L-100.551 428.755Z" fill="black"/>
</g>
</g>
<defs>
<clipPath id="clip0_19_3646">
<rect width="270" height="129" fill="white"/>
</clipPath>
</defs>
</svg>
